<?xml version="1.0" encoding="UTF-8"?>
<svg xmlns="http://www.w3.org/2000/svg" width="162.635" height="162.635" viewBox="0 0 162.635 162.635">
  <g id="ico-1" transform="translate(-217 -2017.365)">
    <g id="Rectángulo_1689" data-name="Rectángulo 1689" transform="translate(298.317 2017.365) rotate(45)" fill="none" stroke="#fb4c6a" stroke-width="3">
      <rect width="115" height="115" stroke="none"></rect>
      <rect x="1.5" y="1.5" width="112" height="112" fill="none"></rect>
    </g>
    <g id="People_Nature" data-name="People &amp; Nature" transform="translate(251 2070.305)">
      <path id="Trazado_1424" data-name="Trazado 1424" d="M3302.912,1920.925l-13.876-23.764-1.182.377a25.244,25.244,0,0,1-7.3,1.228c-1.882,0-4.046-1.045-6.354-2.158-3.089-1.492-6.592-3.184-10.706-3.184a19.141,19.141,0,0,0-11.3,3.709,16.342,16.342,0,0,0-7.171-2.363c-3.572-.3-6.722.9-9.51,1.969-2.023.774-3.936,1.508-5.5,1.37a21.481,21.481,0,0,1-6.1-1.565l-1.146-.475-13.83,19.663,13.546,11.233-3.64,3.64.018.018-.174.174a5.576,5.576,0,0,0,0,7.877l.378.378a5.553,5.553,0,0,0,3.938,1.629l.053,0c0,.117-.014.234-.012.352a5.941,5.941,0,0,0,1.771,4.117l.415.415a5.962,5.962,0,0,0,6.49,1.284,5.431,5.431,0,0,0,1.5,3.334l.426.425a6.106,6.106,0,0,0,4.326,1.8,5.955,5.955,0,0,0,2.583-.592,5.3,5.3,0,0,0,1.5,2.66l.392.392a5.354,5.354,0,0,0,3.813,1.52c.173,0,.347-.007.523-.023a6.971,6.971,0,0,0,4.3-2.057l3.516-3.516.075.039.147.068a8.49,8.49,0,0,0,3.1.575c1.649,0,4.454-1.468,5.861-2.289,1.8.659,4.815.721,6.575-.834a4.959,4.959,0,0,0,1.539-3.071,6.926,6.926,0,0,0,2.7.45,5.407,5.407,0,0,0,3.97-1.737,6,6,0,0,1,7.559-5.139l.119-.1.1-.123c1.454-1.865,1.392-4.715.665-6.655Zm-30.039-21.52c2.619,1.264,5.093,2.458,7.684,2.458a27.479,27.479,0,0,0,7.042-1.021l11.2,19.174-13.612,9.466-7.385-7.385-14.944-14.944a3.013,3.013,0,0,0-2.148-.892c-.073,0-.151,0-.2.008-4.41.294-7.558,4.126-10.6,7.834-.573.7-1.072,1.383-1.553,2.045-1.784,2.454-2.828,3.744-5.074,3.744h-.061a2.3,2.3,0,0,1-.72-.123l-.086-.168c-1.428-2.556,1.828-7.678,4.444-11.793l.739-1.166c2.381-3.779,7.612-10.118,15.907-10.118C3266.9,1896.521,3270.064,1898.049,3272.873,1899.405Zm-51.608,37.458-.378-.378a2.475,2.475,0,0,1,0-3.5l2.056-2.057-.017-.019,1.783-1.782h0l1.829-1.831a4.009,4.009,0,0,1,6.54,1.246l-8.316,8.317A2.476,2.476,0,0,1,3221.264,1936.863Zm6.167,6.511-.415-.415a2.855,2.855,0,0,1-.865-1.975,2.657,2.657,0,0,1,.8-1.931l2.057-2.057h0l4.917-4.917h0l2.452-2.453a4.032,4.032,0,0,1,5.7,0,3.934,3.934,0,0,1,1.084,2.034l-9.428,9.445-2.259,2.259A2.864,2.864,0,0,1,3227.432,1943.374Zm10.515,5.932a3.011,3.011,0,0,1-2.1-.889l-.425-.425c-1.109-1.109-.642-3.55.506-4.7l9.641-9.658a4.019,4.019,0,0,1,4.735,3.959,3.846,3.846,0,0,1-.06.631l-6.7,6.7-3.569,3.568A2.876,2.876,0,0,1,3237.947,1949.307Zm10.96,2.811c-1.305,1.3-3.254,1.56-4.253.56l-.392-.392a2,2,0,0,1-.553-2.3,8.228,8.228,0,0,1,2.028-2.87l6.028-6.028c2.375,2.219,1.557,3.677,1.088,4.5a6,6,0,0,0-.584,3.164ZM3284,1936.612c-1.722,1.4-3.3,1.249-3.575.983l-1.021-1.021c-.007-.009-.016-.016-.023-.024l-2.853-2.853-9.458-9.459,0,0h0l-.071-.071-.3-.3-.007.007a1.477,1.477,0,0,0-1.5-.413l-.864.232-.231.865a1.479,1.479,0,0,0,.416,1.495l-.007.006.3.3.058.057,12.156,12.158a5.312,5.312,0,0,1-.774,3.385c-.865.981-2.73.656-3.179.445l-10.13-10.13-.1-.1-.266-.264-.006.006a1.483,1.483,0,0,0-1.5-.418l-.865.232-.232.865a1.481,1.481,0,0,0,.418,1.5l-.007.006.262.262.1.1,7.872,7.872c.305.666.539,2.949-.3,3.687-.892.786-3.008.494-3.586.212l-5.044-5.041-.071-.072-.3-.3-.007.007a1.479,1.479,0,0,0-1.495-.416l-.864.231-.232.864a1.477,1.477,0,0,0,.413,1.5l-.007.006.3.3.072.073,3.7,3.7a12.176,12.176,0,0,1-3.266,1.288,5.4,5.4,0,0,1-1.892-.33c-.257-.133-.475-.244-.663-.336a2.184,2.184,0,0,1,.161-.591c1.762-3.1,1.024-6.046-2.188-8.762a6.989,6.989,0,0,0,.042-.759,26.07,26.07,0,0,1-9.131-10.161,7.135,7.135,0,0,0-8.8-1.018,7.185,7.185,0,0,0-1.033-1.309,7.13,7.13,0,0,0-9.728-.333l-11.579-9.6,10.776-15.32a23.735,23.735,0,0,0,5.857,1.34c2.271.19,4.5-.66,6.877-1.568,2.467-.944,5.258-2.015,8.133-1.772a13.173,13.173,0,0,1,4.871,1.4,29.967,29.967,0,0,0-4.669,5.738l-.732,1.155c-3.185,5.009-6.79,10.68-4.6,14.838a2.618,2.618,0,0,0,1.508,1.586,5.451,5.451,0,0,0,2.038.42h.1c3.926,0,5.782-2.552,7.577-5.02.455-.626.926-1.274,1.442-1.9,2.626-3.2,5.342-6.5,8.368-6.726l23.211,23.213A4.479,4.479,0,0,1,3284,1936.612Z" transform="translate(-3208.946 -1893.424)" fill="#fb4c6a"></path>
    </g>
  </g>
</svg>
