<?xml version="1.0" encoding="UTF-8"?>
<svg xmlns="http://www.w3.org/2000/svg" width="162.635" height="162.635" viewBox="0 0 162.635 162.635">
  <g id="ico-3" transform="translate(-973 -2017.365)">
    <g id="Rectángulo_1691" data-name="Rectángulo 1691" transform="translate(1054.317 2017.365) rotate(45)" fill="none" stroke="#fb4c6a" stroke-width="3">
      <rect width="115" height="115" stroke="none"></rect>
      <rect x="1.5" y="1.5" width="112" height="112" fill="none"></rect>
    </g>
    <path id="Trazado_1423" data-name="Trazado 1423" d="M3196.683,1310.885c-3.134-3.116-6.444-2.653-8.858-2.313-1.875.261-2.891.362-3.684-.426l-4.993-4.957.235-.234a4.661,4.661,0,0,0,1.306-3.3,4.756,4.756,0,0,0-1.382-3.406,6.07,6.07,0,0,0-2.583-1.506,4.645,4.645,0,0,0,.036-.579,5.882,5.882,0,0,0-1.694-4.022,5.356,5.356,0,0,0-2.641-1.327,4.476,4.476,0,0,0,.056-.715,6,6,0,0,0-1.67-4.057,6.14,6.14,0,0,0-2.853-1.525c.005-.092.008-.184.008-.277a5.764,5.764,0,0,0-1.787-4c-2.124-2.117-5.035-2.411-6.77-.686a13.048,13.048,0,0,1-3.374,2.289l-9.173-9.12c-.937-.933-.86-2-.628-3.968.271-2.3.642-5.443-2.28-8.349-4.332-4.307-10.392-3.671-12.979-3.4-.24.025-.448.047-.619.061a1.548,1.548,0,0,0-.972,2.641l4.429,4.405-3.815,3.794-4.441-4.417a1.547,1.547,0,0,0-2.635.979c-.012.149-.029.328-.049.535-.236,2.479-.863,9.064,3.251,13.156,3.134,3.116,6.442,2.651,8.859,2.313,1.876-.263,2.891-.364,3.683.424l6.4,6.366c-1.619,2.122-2.574,6.84-2.807,8.107-.385,1.091-2.339,6.748-2.379,9.27l-3.36,3.346a1.548,1.548,0,0,0,0,2.195l14.594,14.525a1.549,1.549,0,0,0,2.185,0l5.8-5.768a16.283,16.283,0,0,0,11.43-5.171l.414-.412c3.5,3.484,3.972,3.946,4.293,4.262l.71.7c.938.933.86,2,.628,3.969-.271,2.3-.642,5.443,2.28,8.349a13.477,13.477,0,0,0,9.79,3.6,29.492,29.492,0,0,0,3.189-.2c.24-.025.448-.047.619-.06a1.548,1.548,0,0,0,.971-2.642l-4.429-4.4,3.814-3.795,4.441,4.417a1.548,1.548,0,0,0,2.636-.979c.011-.149.028-.328.048-.535C3200.17,1321.561,3200.8,1314.976,3196.683,1310.885Zm-62.129-35.478c-2.256.314-4.2.588-6.245-1.443-2.137-2.125-2.545-5.346-2.522-7.877l3.12,3.1a1.546,1.546,0,0,0,2.183,0l6.011-5.978a1.548,1.548,0,0,0,0-2.2l-3.129-3.111a10.544,10.544,0,0,1,7.8,2.7c1.853,1.843,1.638,3.673,1.388,5.79s-.529,4.489,1.521,6.526l8.215,8.168a7.231,7.231,0,0,1-1.483.328,4.212,4.212,0,0,0-4.188,1.62l-6.372-6.334C3138.931,1274.792,3136.6,1275.118,3134.553,1275.407Zm24.495,38.434h-.019a2.938,2.938,0,0,0-2.072.859l-4.746,4.723-12.4-12.34,2.293-2.282a2.926,2.926,0,0,0,.876-2.09c0-1.547,1.375-5.985,2.243-8.42a1.592,1.592,0,0,0,.066-.246c.494-2.746,1.525-6.208,2.333-7.011l1.068-1.062c.2-.2.389-.4.566-.582.975-1.019,1.066-1.041,1.581-.929,1.817.388,7.817-1.784,10.756-4.709.413-.411,1.477-.235,2.4.684a2.748,2.748,0,0,1,.875,1.806.764.764,0,0,1-.187.563l-.577.575a.2.2,0,0,0-.019.019l-.977.971-.079.08-.472.469.02.02a1.458,1.458,0,0,0-.029,2.174,1.572,1.572,0,0,0,2.19,0l0,0,.1-.1.017-.017,1.417-1.41c.3-.28,1.663-.034,2.351.65a2.965,2.965,0,0,1,.758,1.861.725.725,0,0,1-.108.463l-2.006,2,.013.014a1.357,1.357,0,0,0-.417,1.482,1.547,1.547,0,0,0,1.093,1.1,1.526,1.526,0,0,0,1.492-.4l0,0,.782-.777a2.705,2.705,0,0,1,2.646.361,2.84,2.84,0,0,1,.782,1.827.756.756,0,0,1-.131.5l-.927.924-.015.014-.1.1-.685.683.026.026a1.425,1.425,0,0,0-.033,2.166,1.5,1.5,0,0,0,2.182-.006l.01.009.2-.2.014-.014.575-.573c.335-.318,1.533-.152,2.343.655a1.7,1.7,0,0,1,.469,1.21,1.6,1.6,0,0,1-.394,1.106l-1.345,1.339h0l-7.506,7.471A13.244,13.244,0,0,1,3159.048,1313.841Zm34.852,4.015a1.547,1.547,0,0,0-2.183,0l-6.011,5.978a1.549,1.549,0,0,0,0,2.2l3.129,3.111a10.526,10.526,0,0,1-7.8-2.7c-1.853-1.843-1.638-3.672-1.388-5.79s.529-4.488-1.521-6.528l-.718-.711c-.319-.315-.786-.777-4.273-4.243l3.814-3.8,5,4.969c1.921,1.91,4.246,1.583,6.3,1.3,2.255-.318,4.2-.589,6.245,1.442,2.137,2.125,2.545,5.346,2.522,7.878Z" transform="translate(-2107.694 808.264)" fill="#fb4c6a"></path>
  </g>
</svg>
