<?xml version="1.0" encoding="UTF-8"?>
<svg xmlns="http://www.w3.org/2000/svg" width="162.635" height="162.635" viewBox="0 0 162.635 162.635">
  <g id="ico-2" transform="translate(-595 -2017.365)">
    <g id="Rectángulo_1690" data-name="Rectángulo 1690" transform="translate(676.317 2017.365) rotate(45)" fill="none" stroke="#fb4c6a" stroke-width="3">
      <rect width="115" height="115" stroke="none"></rect>
      <rect x="1.5" y="1.5" width="112" height="112" fill="none"></rect>
    </g>
    <path id="Trazado_1422" data-name="Trazado 1422" d="M3228.633,2081.177a1.631,1.631,0,0,0-1.476-.992h-7.332v-7.325a1.588,1.588,0,0,0-.984-1.472,1.631,1.631,0,0,0-1.736.345l-5.657,5.654a1.549,1.549,0,0,0-.454,1.1v8.35l-5.8,5.8a32.169,32.169,0,1,0,4.2,4.617,1.548,1.548,0,0,0-2.482,1.852,28.852,28.852,0,0,1,5.765,17.387A29.12,29.12,0,1,1,3203,2094.83l-5.049,5.052a21.917,21.917,0,1,0,3.974,4.524,1.548,1.548,0,1,0-2.585,1.7,18.955,18.955,0,1,1-3.583-4.032l-5.069,5.072a11.7,11.7,0,1,0,3.735,4.832,1.548,1.548,0,0,0-2.86,1.188,8.706,8.706,0,1,1-3.085-3.808l-6.029,6.034a1.548,1.548,0,0,0,2.191,2.188l7.225-7.23h0l14.449-14.461h0l6.873-6.879h8.337a1.55,1.55,0,0,0,1.1-.453l5.646-5.643A1.587,1.587,0,0,0,3228.633,2081.177Zm-14.541-2.053,2.637-2.635v4.6l-2.637,2.639Zm6.8,6.792h-4.6l2.631-2.633h4.605Z" transform="translate(-2514.322 -8.197)" fill="#fb4c6a"></path>
  </g>
</svg>
