<?xml version="1.0" encoding="UTF-8"?>
<svg xmlns="http://www.w3.org/2000/svg" width="115.998" height="37.91" viewBox="0 0 115.998 37.91">
  <g id="logo-otis" transform="translate(-60.75 -311.953)">
    <path id="Trazado_1" data-name="Trazado 1" d="M71.9,330.9c0-8.054,4.363-9.934,7.2-9.934s7.2,1.88,7.2,9.934-4.361,9.936-7.2,9.936-7.2-1.875-7.2-9.936m-11.149,0c0,11.054,7.351,18.958,18.348,18.958s18.347-7.9,18.347-18.958S90.095,311.953,79.1,311.953,60.75,319.86,60.75,330.9" fill="#001733"></path>
    <path id="Trazado_2" data-name="Trazado 2" d="M137.168,322.794h-10.14v-9.28H158.45v9.28H148.313v26.912H137.168Z" transform="translate(-29.831 -0.703)" fill="#001733"></path>
    <rect id="Rectángulo_8" data-name="Rectángulo 8" width="11.152" height="36.188" transform="translate(131.019 312.815)" fill="#001733"></rect>
    <path id="Trazado_3" data-name="Trazado 3" d="M223.483,336.837a6.654,6.654,0,0,0,.405,2.379c.813,2.185,3.245,2.639,5.322,2.639,1.825,0,4.615-.605,4.615-3.292,0-1.875-1.574-2.384-7.809-4.155-5.724-1.626-12.268-3.193-12.268-10.494,0-8.362,7.149-11.962,14.6-11.962,7.855,0,14.8,2.991,15.105,11.81H232.909a2.77,2.77,0,0,0-1.32-2.888,5.76,5.76,0,0,0-3.291-.912c-1.52,0-4.005.4-4.005,2.431.206,2.583,5.377,3.142,10.493,4.563s10.186,3.8,10.186,10.44c0,9.428-8.669,12.464-16.726,12.464-4.1,0-15.808-1.469-15.915-13.023Z" transform="translate(-68.224)" fill="#001733"></path>
  </g>
</svg>
